{"title":"STOLEN (2012) 720p HINDI-ENG DD-5.1CH ORG BY - RAJPUT (Team-Gpso","uid":8104456,"size":2193292594,"categoryP":"video","categoryS":"hd___movies","magnet":"?xt=urn:btih:6a283aa81f41a936b39aaae462a2f0f1199ccc7c&amp;dn=STOLEN+%282012%29+720p+HINDI-ENG+DD-5.1CH+ORG+BY+-+RAJPUT+%28Team-Gpso&amp;tr=udp%3A%2F%2Ftracker.openbittorrent.com%3A80&amp;tr=udp%3A%2F%2Fopen.demonii.com%3A1337&amp;tr=udp%3A%2F%2Ftracker.coppersurfer.tk%3A6969&amp;tr=udp%3A%2F%2Fexodus.desync.com%3A6969","seeders":1,"leechers":0,"uploader":"hirenraj","files":10,"time":1360050004,"description":"1ST TIME ON NET WITH ORG HINDI DOLBY DIGITAL 5.1CH SOUND\nSTOLEN (2012) 720p HINDI-ENG DD-5.1CH ORG BY - RAJPUT (Team-Gpsoft)\n\n\nGeneral\nFormat : Matroska\nFormat version : Version 2\nFile size : 2.02 GiB\nDuration : 1h 35mn\nOverall bit rate mode : Variable\nOverall bit rate : 3 024 Kbps\nMovie name : STOLEN (2012) 720p HINDI-ENG DD-5.1CH ORG BY - RAJPUT (Team-Gpsoft)\n\nVideo\nID : 1\nFormat : AVC\nFormat/Info : Advanced Video Codec\nFormat profile : &lt;a class=&quot;__cf_email__&quot; href=&quot;/cdn-cgi/l/email-protection&quot; data-cfemail=&quot;236b4a444b636f170d13&quot;&gt;[email&amp;#160;protected]&lt;/a&gt;&lt;script cf-hash='f9e31' type=&quot;text/javascript&quot;&gt;\n/* &lt;![CDATA[ */!function(){try{var t=&quot;currentScript&quot;in document?document.currentScript:function(){for(var t=document.getElementsByTagName(&quot;script&quot;),e=t.length;e--;)if(t[e].getAttribute(&quot;cf-hash&quot;))return t[e]}();if(t&amp;&amp;t.previousSibling){var e,r,n,i,c=t.previousSibling,a=c.getAttribute(&quot;data-cfemail&quot;);if(a){for(e=&quot;&quot;,r=parseInt(a.substr(0,2),16),n=2;a.length-n;n+=2)i=parseInt(a.substr(n,2),16)^r,e+=String.fromCharCode(i);e=document.createTextNode(e),c.parentNode.replaceChild(e,c)}}}catch(u){}}();/* ]]&gt; */&lt;/script&gt;\nFormat settings, CABAC : Yes\nFormat settings, ReFrames : 3 frames\nMuxing mode : Header stripping\nCodec ID : V_MPEG4/ISO/AVC\nDuration : 1h 35mn\nBit rate mode : Variable\nBit rate : 2 243 Kbps\nMaximum bit rate : 25.0 Mbps\nWidth : 1 280 pixels\nHeight : 720 pixels\nDisplay aspect ratio : 16:9\nFrame rate : 23.976 fps\nColor space : YUV\nChroma subsampling : 4:2:0\nBit depth : 8 bits\nScan type : Progressive\nBits/(Pixel*Frame) : 0.102\nStream size : 1.47 GiB (73%)\nTitle : STOLEN (2012) 720p HINDI-ENG DD-5.1CH ORG BY - RAJPUT (Team-Gpsoft)\nWriting library : x264 core 120 r2120 0c7dab9\nLanguage : Hindi\nDefault : Yes\nForced : No\n\nAudio #1\nID : 2\nFormat : AC-3\nFormat/Info : Audio Coding 3\nMode extension : CM (complete main)\nMuxing mode : Header stripping\nCodec ID : A_AC3\nDuration : 1h 35mn\nBit rate mode : Constant\nBit rate : 384 Kbps\nChannel(s) : 6 channels\nChannel positions : Front: L C R, Side: L R, LFE\nSampling rate : 48.0 KHz\nBit depth : 16 bits\nCompression mode : Lossy\nDelay relative to video : 2s 150ms\nStream size : 262 MiB (13%)\nTitle : DOLBY DIGITAL 5.1CH ORG BY - RAJPUT\nLanguage : Hindi\nDefault : Yes\nForced : No\n\nAudio #2\nID : 3\nFormat : AC-3\nFormat/Info : Audio Coding 3\nMode extension : CM (complete main)\nMuxing mode : Header stripping\nCodec ID : A_AC3\nDuration : 1h 35mn\nBit rate mode : Constant\nBit rate : 384 Kbps\nChannel(s) : 6 channels\nChannel positions : Front: L C R, Side: L R, LFE\nSampling rate : 48.0 KHz\nBit depth : 16 bits\nCompression mode : Lossy\nStream size : 262 MiB (13%)\nTitle : DOLBY DIGITAL 5.1CH ORG BY - RAJPUT\nLanguage : English\nDefault : No\nForced : No\n\nText\nID : 4\nFormat : PGS\nMuxing mode : zlib\nCodec ID : S_HDMV/PGS\nCodec ID/Info : The same subtitle format used on BDs/HD-DVDs\nTitle : SUBTITLES PGS\nLanguage : English\nDefault : Yes\nForced : No","torrent":{"xt":"urn:btih:6a283aa81f41a936b39aaae462a2f0f1199ccc7c","amp;dn":"STOLEN+%282012%29+720p+HINDI-ENG+DD-5.1CH+ORG+BY+-+RAJPUT+%28Team-Gpso","amp;tr":["udp%3A%2F%2Ftracker.openbittorrent.com%3A80","udp%3A%2F%2Fopen.demonii.com%3A1337","udp%3A%2F%2Ftracker.coppersurfer.tk%3A6969","udp%3A%2F%2Fexodus.desync.com%3A6969"],"infoHash":"6a283aa81f41a936b39aaae462a2f0f1199ccc7c","infoHashBuffer":{"type":"Buffer","data":[106,40,58,168,31,65,169,54,179,154,170,228,98,162,240,241,25,156,204,124]},"announce":[],"urlList":[]}}